<svg width="50" height="52" viewBox="0 0 50 52" fill="none" xmlns="http://www.w3.org/2000/svg">
<path fill-rule="evenodd" clip-rule="evenodd" d="M12.5 25.974C12.5 25.5435 12.6646 25.1306 12.9576 24.8261C13.2507 24.5217 13.6481 24.3506 14.0625 24.3506H32.1656L25.4562 17.3831C25.1629 17.0783 24.998 16.6649 24.998 16.2338C24.998 15.8027 25.1629 15.3892 25.4562 15.0844C25.7496 14.7796 26.1476 14.6083 26.5625 14.6083C26.9774 14.6083 27.3754 14.7796 27.6688 15.0844L37.0438 24.8247C37.1893 24.9755 37.3047 25.1546 37.3835 25.3518C37.4622 25.5491 37.5028 25.7605 37.5028 25.974C37.5028 26.1876 37.4622 26.399 37.3835 26.5962C37.3047 26.7934 37.1893 26.9726 37.0438 27.1234L27.6688 36.8636C27.3754 37.1685 26.9774 37.3397 26.5625 37.3397C26.1476 37.3397 25.7496 37.1685 25.4562 36.8636C25.1629 36.5588 24.998 36.1454 24.998 35.7143C24.998 35.2832 25.1629 34.8698 25.4562 34.5649L32.1656 27.5974H14.0625C13.6481 27.5974 13.2507 27.4264 12.9576 27.1219C12.6646 26.8175 12.5 26.4046 12.5 25.974Z" fill="white"/>
</svg>
