<svg width="47" height="50" viewBox="0 0 47 50" fill="none" xmlns="http://www.w3.org/2000/svg">
<path d="M33.1111 47.2223C32.3776 47.2229 31.6736 46.9333 31.1528 46.4167L22 37.2501L12.9167 46.3056C12.5324 46.7163 12.0326 47.0007 11.4832 47.1212C10.9338 47.2416 10.3608 47.1925 9.83997 46.9802C9.31913 46.768 8.87498 46.4026 8.56628 45.9325C8.25758 45.4623 8.09887 44.9096 8.11113 44.3473V5.55561C8.11113 4.8189 8.40379 4.11236 8.92473 3.59142C9.44566 3.07049 10.1522 2.77783 10.8889 2.77783H33.1111C33.8478 2.77783 34.5544 3.07049 35.0753 3.59142C35.5963 4.11236 35.8889 4.8189 35.8889 5.55561V44.4445C35.8889 45.1812 35.5963 45.8878 35.0753 46.4087C34.5544 46.9296 33.8478 47.2223 33.1111 47.2223ZM33.1111 44.4445V5.55561H10.8889V44.3473L22 33.3334L33.1111 44.4445Z" fill="white"/>
</svg>
