<svg width="30" height="30" viewBox="0 0 30 30" fill="none" xmlns="http://www.w3.org/2000/svg">
<path d="M11.25 5.625H7.5V1.875H5.625V5.625H1.875V7.5H5.625V11.25H7.5V7.5H11.25V5.625Z" fill="white"/>
<path d="M28.0491 15.5681L25.2366 9.00562C25.1644 8.83695 25.0443 8.69319 24.8911 8.59219C24.7379 8.49119 24.5585 8.4374 24.375 8.4375H21.5625V6.5625C21.5625 6.31386 21.4637 6.0754 21.2879 5.89959C21.1121 5.72377 20.8736 5.625 20.625 5.625H14.0625V7.5H19.6875V19.2712C19.2603 19.5193 18.8865 19.8495 18.5875 20.2427C18.2885 20.636 18.0704 21.0845 17.9456 21.5625H12.0544C11.8504 20.7579 11.384 20.0443 10.729 19.5345C10.0739 19.0248 9.26754 18.748 8.4375 18.748C7.60746 18.748 6.80111 19.0248 6.14604 19.5345C5.49096 20.0443 5.02456 20.7579 4.82063 21.5625H3.75V13.125H1.875V22.5C1.875 22.7486 1.97377 22.9871 2.14959 23.1629C2.3254 23.3387 2.56386 23.4375 2.8125 23.4375H4.82063C5.02456 24.2421 5.49096 24.9557 6.14604 25.4655C6.80111 25.9752 7.60746 26.252 8.4375 26.252C9.26754 26.252 10.0739 25.9752 10.729 25.4655C11.384 24.9557 11.8504 24.2421 12.0544 23.4375H17.9456C18.1496 24.2421 18.616 24.9557 19.271 25.4655C19.9261 25.9752 20.7325 26.252 21.5625 26.252C22.3925 26.252 23.1989 25.9752 23.854 25.4655C24.509 24.9557 24.9754 24.2421 25.1794 23.4375H27.1875C27.4361 23.4375 27.6746 23.3387 27.8504 23.1629C28.0262 22.9871 28.125 22.7486 28.125 22.5V15.9375C28.125 15.8105 28.0992 15.6848 28.0491 15.5681V15.5681ZM8.4375 24.375C8.06666 24.375 7.70415 24.265 7.39581 24.059C7.08746 23.853 6.84714 23.5601 6.70523 23.2175C6.56331 22.8749 6.52618 22.4979 6.59853 22.1342C6.67087 21.7705 6.84945 21.4364 7.11167 21.1742C7.3739 20.912 7.70799 20.7334 8.07171 20.661C8.43542 20.5887 8.81242 20.6258 9.15503 20.7677C9.49764 20.9096 9.79048 21.15 9.99651 21.4583C10.2025 21.7666 10.3125 22.1292 10.3125 22.5C10.3118 22.9971 10.114 23.4735 9.7625 23.825C9.41103 24.1765 8.93455 24.3743 8.4375 24.375V24.375ZM21.5625 10.3125H23.7563L25.7662 15H21.5625V10.3125ZM21.5625 24.375C21.1917 24.375 20.8291 24.265 20.5208 24.059C20.2125 23.853 19.9721 23.5601 19.8302 23.2175C19.6883 22.8749 19.6512 22.4979 19.7235 22.1342C19.7959 21.7705 19.9745 21.4364 20.2367 21.1742C20.4989 20.912 20.833 20.7334 21.1967 20.661C21.5604 20.5887 21.9374 20.6258 22.28 20.7677C22.6226 20.9096 22.9155 21.15 23.1215 21.4583C23.3275 21.7666 23.4375 22.1292 23.4375 22.5C23.437 22.9971 23.2393 23.4738 22.8878 23.8253C22.5363 24.1768 22.0596 24.3745 21.5625 24.375ZM26.25 21.5625H25.1794C24.9729 20.7595 24.5057 20.0477 23.8512 19.5387C23.1966 19.0297 22.3917 18.7523 21.5625 18.75V16.875H26.25V21.5625Z" fill="white"/>
</svg>
