<svg width="40" height="40" viewBox="0 0 40 40" fill="none" xmlns="http://www.w3.org/2000/svg">
<path d="M36.37 12.385C36.2167 12.1635 36.012 11.9824 35.7734 11.8573C35.5348 11.7322 35.2694 11.6668 35 11.6667H12.2216L10.2983 7.05001C10.0461 6.44204 9.61909 5.92265 9.07135 5.55769C8.52361 5.19273 7.87984 4.99863 7.22165 5.00001H3.33331V8.33334H7.22165L15.1283 27.3083C15.255 27.6119 15.4686 27.8713 15.7424 28.0537C16.0161 28.2361 16.3377 28.3334 16.6666 28.3333H30C30.695 28.3333 31.3166 27.9017 31.5616 27.2533L36.5616 13.92C36.6561 13.6677 36.6881 13.3963 36.6547 13.1289C36.6213 12.8616 36.5236 12.6063 36.37 12.385V12.385ZM28.845 25H17.7783L13.6116 15H32.595L28.845 25Z" fill="white"/>
<path d="M17.5 35C18.8807 35 20 33.8807 20 32.5C20 31.1193 18.8807 30 17.5 30C16.1193 30 15 31.1193 15 32.5C15 33.8807 16.1193 35 17.5 35Z" fill="white"/>
<path d="M29.1667 35C30.5474 35 31.6667 33.8807 31.6667 32.5C31.6667 31.1193 30.5474 30 29.1667 30C27.786 30 26.6667 31.1193 26.6667 32.5C26.6667 33.8807 27.786 35 29.1667 35Z" fill="white"/>
</svg>
