<svg width="101" height="100" viewBox="0 0 101 100" fill="none" xmlns="http://www.w3.org/2000/svg">
<path d="M12.5012 50H50.0012V56.25H12.5012V50Z" fill="#FFFCFC"/>
<path d="M6.25122 34.375H37.5012V40.625H6.25122V34.375Z" fill="#FFFCFC"/>
<path d="M93.498 51.8938L84.123 30.0188C83.8825 29.4565 83.482 28.9773 82.9715 28.6406C82.4609 28.304 81.8627 28.1247 81.2512 28.125H71.8762V21.875C71.8762 21.0462 71.5469 20.2513 70.9609 19.6653C70.3748 19.0792 69.58 18.75 68.7512 18.75H18.7512V25H65.6262V64.2375C64.2022 65.0644 62.956 66.1649 61.9595 67.4758C60.963 68.7866 60.2358 70.2818 59.8199 71.875H40.1824C39.4218 68.9292 37.613 66.3619 35.0949 64.6544C32.5768 62.9468 29.5225 62.2163 26.5043 62.5996C23.4861 62.983 20.7114 64.4539 18.7002 66.7368C16.6889 69.0196 15.5793 71.9576 15.5793 75C15.5793 78.0424 16.6889 80.9804 18.7002 83.2632C20.7114 85.5461 23.4861 87.017 26.5043 87.4004C29.5225 87.7837 32.5768 87.0532 35.0949 85.3456C37.613 83.6381 39.4218 81.0708 40.1824 78.125H59.8199C60.4997 80.807 62.0544 83.1857 64.238 84.8849C66.4216 86.5841 69.1094 87.5066 71.8762 87.5066C74.643 87.5066 77.3308 86.5841 79.5144 84.8849C81.698 83.1857 83.2526 80.807 83.9324 78.125H90.6262C91.455 78.125 92.2498 77.7958 92.8359 77.2097C93.4219 76.6237 93.7512 75.8288 93.7512 75V53.125C93.7513 52.7016 93.6652 52.2827 93.498 51.8938ZM28.1262 81.25C26.89 81.25 25.6817 80.8834 24.6539 80.1967C23.626 79.5099 22.825 78.5338 22.3519 77.3918C21.8789 76.2497 21.7551 74.9931 21.9963 73.7807C22.2374 72.5683 22.8327 71.4547 23.7068 70.5806C24.5808 69.7065 25.6945 69.1112 26.9069 68.8701C28.1192 68.6289 29.3759 68.7527 30.5179 69.2258C31.66 69.6988 32.6361 70.4999 33.3229 71.5277C34.0096 72.5555 34.3762 73.7639 34.3762 75C34.3745 76.6571 33.7155 78.2458 32.5438 79.4176C31.372 80.5893 29.7833 81.2483 28.1262 81.25ZM71.8762 34.375H79.1887L85.8887 50H71.8762V34.375ZM71.8762 81.25C70.64 81.25 69.4317 80.8834 68.4039 80.1967C67.3761 79.5099 66.575 78.5338 66.1019 77.3918C65.6289 76.2497 65.5051 74.9931 65.7463 73.7807C65.9874 72.5683 66.5827 71.4547 67.4568 70.5806C68.3308 69.7065 69.4445 69.1112 70.6569 68.8701C71.8692 68.6289 73.1259 68.7527 74.2679 69.2258C75.41 69.6988 76.3861 70.4999 77.0729 71.5277C77.7596 72.5555 78.1262 73.7639 78.1262 75C78.1245 76.6571 77.4655 78.2458 76.2938 79.4176C75.122 80.5893 73.5333 81.2483 71.8762 81.25ZM87.5012 71.875H83.9324C83.2441 69.1982 81.6869 66.8256 79.505 65.1289C77.3232 63.4323 74.64 62.5077 71.8762 62.5V56.25H87.5012V71.875Z" fill="#FFFCFC"/>
</svg>
