<svg width="101" height="100" viewBox="0 0 101 100" fill="none" xmlns="http://www.w3.org/2000/svg">
<path d="M37.5012 62.5L62.5012 37.5" stroke="white" stroke-width="3.33333" stroke-linecap="round" stroke-linejoin="round"/>
<path d="M39.5846 41.6667C40.7351 41.6667 41.6679 40.7339 41.6679 39.5833C41.6679 38.4327 40.7351 37.5 39.5846 37.5C38.434 37.5 37.5012 38.4327 37.5012 39.5833C37.5012 40.7339 38.434 41.6667 39.5846 41.6667Z" fill="white" stroke="white" stroke-width="3.33333" stroke-linecap="round" stroke-linejoin="round"/>
<path d="M60.4179 62.5C61.5685 62.5 62.5013 61.5673 62.5013 60.4167C62.5013 59.2661 61.5685 58.3333 60.4179 58.3333C59.2673 58.3333 58.3346 59.2661 58.3346 60.4167C58.3346 61.5673 59.2673 62.5 60.4179 62.5Z" fill="white" stroke="white" stroke-width="3.33333" stroke-linecap="round" stroke-linejoin="round"/>
<path d="M50.0012 87.5C70.7119 87.5 87.5012 70.7107 87.5012 50C87.5012 29.2893 70.7119 12.5 50.0012 12.5C29.2905 12.5 12.5012 29.2893 12.5012 50C12.5012 70.7107 29.2905 87.5 50.0012 87.5Z" stroke="white" stroke-width="3.33333" stroke-linecap="round" stroke-linejoin="round"/>
</svg>
