<svg width="37" height="30" viewBox="0 0 37 30" fill="none" xmlns="http://www.w3.org/2000/svg">
<g clip-path="url(#clip0_106:2)">
<path d="M23.3228 15C21.4738 15 19.8983 14.349 18.5962 13.0469C17.2941 11.7448 16.6431 10.1693 16.6431 8.32031C16.6431 6.47135 17.2941 4.89583 18.5962 3.59375C19.8983 2.29167 21.4738 1.64062 23.3228 1.64062C25.1717 1.64062 26.7472 2.29167 28.0493 3.59375C29.3514 4.89583 30.0024 6.47135 30.0024 8.32031C30.0024 10.1693 29.3514 11.7448 28.0493 13.0469C26.7472 14.349 25.1717 15 23.3228 15ZM8.36182 11.6406H13.3618V15H8.36182V20H5.00244V15H0.00244141V11.6406H5.00244V6.64062H8.36182V11.6406ZM23.3228 18.3594C24.9634 18.3594 26.7733 18.5938 28.7524 19.0625C30.7316 19.5312 32.5415 20.2995 34.1821 21.3672C35.8228 22.4349 36.6431 23.6458 36.6431 25V28.3594H10.0024V25C10.0024 23.6458 10.8228 22.4349 12.4634 21.3672C14.104 20.2995 15.9139 19.5312 17.8931 19.0625C19.8722 18.5938 21.6821 18.3594 23.3228 18.3594Z" fill="white"/>
</g>
<defs>
<clipPath id="clip0_106:2">
<rect width="36.88" height="30" fill="white"/>
</clipPath>
</defs>
</svg>
