<svg width="33" height="33" viewBox="0 0 33 33" fill="none" xmlns="http://www.w3.org/2000/svg">
<path d="M28.705 25.295C27.9244 24.5473 27.1647 23.7781 26.4267 22.9883C25.8067 22.3583 25.4333 21.9 25.4333 21.9L20.7667 19.6717C22.635 17.5527 23.6661 14.825 23.6667 12C23.6667 5.56834 18.4333 0.333344 12 0.333344C5.56666 0.333344 0.333328 5.56834 0.333328 12C0.333328 18.4317 5.56666 23.6667 12 23.6667C14.9383 23.6667 17.6167 22.5667 19.6717 20.7683L21.9 25.435C21.9 25.435 22.3583 25.8083 22.9883 26.4283C23.6333 27.0333 24.4817 27.8517 25.295 28.7067L27.5583 31.0267L28.565 32.1033L32.1 28.5683L31.0233 27.5617C30.3917 26.9417 29.5483 26.1183 28.705 25.295V25.295ZM12 20.3333C7.40499 20.3333 3.66666 16.595 3.66666 12C3.66666 7.40501 7.40499 3.66668 12 3.66668C16.595 3.66668 20.3333 7.40501 20.3333 12C20.3333 16.595 16.595 20.3333 12 20.3333Z" fill="white"/>
</svg>
