<svg width="34" height="34" viewBox="0 0 34 34" fill="none" xmlns="http://www.w3.org/2000/svg">
<path d="M13.7857 2V6.28571L11.6429 7.35714L8.42857 4.14286L4.14286 8.42857L7.35714 11.6429L6.28571 13.7857H2V20.2143H6.28571L7.35714 22.3571L4.14286 25.5714L8.42857 29.8571L11.6429 26.6429L13.7857 27.7143V32H20.2143V27.7143L22.3571 26.6429L25.5714 29.8571L29.8571 25.5714L26.6429 22.3571L27.7143 20.2143H32V13.7857H27.7143L26.6429 11.6429L29.8571 8.42857L25.5714 4.14286L22.3571 7.35714L20.2143 6.28571V2H13.7857Z" stroke="white" stroke-width="2.5" stroke-linecap="round" stroke-linejoin="round"/>
<path d="M17 21.2857C19.3669 21.2857 21.2857 19.3669 21.2857 17C21.2857 14.6331 19.3669 12.7143 17 12.7143C14.6331 12.7143 12.7143 14.6331 12.7143 17C12.7143 19.3669 14.6331 21.2857 17 21.2857Z" stroke="white" stroke-width="2.5" stroke-linecap="round" stroke-linejoin="round"/>
</svg>
