<svg width="101" height="100" viewBox="0 0 101 100" fill="none" xmlns="http://www.w3.org/2000/svg">
<path d="M50.0011 8.33334C27.0261 8.33334 8.33447 27.025 8.33447 50V67.2625C8.33447 71.5292 12.072 75 16.6678 75H20.8345C21.9395 75 22.9993 74.561 23.7807 73.7796C24.5622 72.9982 25.0011 71.9384 25.0011 70.8333V49.4042C25.0011 48.2991 24.5622 47.2393 23.7807 46.4579C22.9993 45.6765 21.9395 45.2375 20.8345 45.2375H17.0511C19.3678 29.1125 33.2428 16.6667 50.0011 16.6667C66.7595 16.6667 80.6345 29.1125 82.9511 45.2375H79.1678C78.0627 45.2375 77.0029 45.6765 76.2215 46.4579C75.4401 47.2393 75.0011 48.2991 75.0011 49.4042V75C75.0011 79.5958 71.2636 83.3333 66.6678 83.3333H58.3345V79.1667H41.6678V91.6667H66.6678C75.8595 91.6667 83.3345 84.1917 83.3345 75C87.9303 75 91.6678 71.5292 91.6678 67.2625V50C91.6678 27.025 72.9761 8.33334 50.0011 8.33334Z" fill="white"/>
</svg>
