<svg width="50" height="50" viewBox="0 0 50 50" fill="none" xmlns="http://www.w3.org/2000/svg">
<path d="M17.5781 8.98438H17.1875C17.4023 8.98438 17.5781 8.80859 17.5781 8.59375V8.98438H32.4219V8.59375C32.4219 8.80859 32.5977 8.98438 32.8125 8.98438H32.4219V12.5H35.9375V8.59375C35.9375 6.87012 34.5361 5.46875 32.8125 5.46875H17.1875C15.4639 5.46875 14.0625 6.87012 14.0625 8.59375V12.5H17.5781V8.98438ZM42.1875 12.5H7.8125C6.94824 12.5 6.25 13.1982 6.25 14.0625V15.625C6.25 15.8398 6.42578 16.0156 6.64062 16.0156H9.58984L10.7959 41.5527C10.874 43.2178 12.251 44.5312 13.916 44.5312H36.084C37.7539 44.5312 39.126 43.2227 39.2041 41.5527L40.4102 16.0156H43.3594C43.5742 16.0156 43.75 15.8398 43.75 15.625V14.0625C43.75 13.1982 43.0518 12.5 42.1875 12.5ZM35.708 41.0156H14.292L13.1104 16.0156H36.8896L35.708 41.0156Z" fill="white"/>
</svg>
