<svg width="150" height="100" viewBox="0 0 150 100" fill="none" xmlns="http://www.w3.org/2000/svg">
<path d="M72.8516 13.8672C67.296 10.178 61.1979 8.33333 54.5573 8.33333C50.0868 8.33333 45.8008 9.21224 41.6992 10.9701C37.5977 12.7279 34.0712 15.0825 31.1198 18.0339C28.1684 20.9852 25.8138 24.5009 24.056 28.5807C22.2982 32.6606 21.4193 36.9358 21.4193 41.4062C21.4193 45.9201 22.2982 50.217 24.056 54.2969C25.8138 58.3767 28.1684 61.8924 31.1198 64.8438C34.0712 67.7951 37.5868 70.1497 41.6667 71.9075C45.7465 73.6654 50.0434 74.5443 54.5573 74.5443C61.1979 74.5443 67.296 72.6997 72.8516 69.0104C67.1658 64.3663 63.3029 58.6046 61.263 51.7253C59.2231 44.8459 59.2339 37.9774 61.2956 31.1198C63.3572 24.2622 67.2092 18.5113 72.8516 13.8672ZM75 15.4297C69.5312 19.7266 65.7986 25.1411 63.8021 31.6732C61.8056 38.2053 61.7947 44.7266 63.7695 51.237C65.7444 57.7474 69.4878 63.151 75 67.4479C80.5121 63.151 84.2556 57.7474 86.2305 51.237C88.2053 44.7266 88.1944 38.2053 86.1979 31.6732C84.2014 25.1411 80.4688 19.7266 75 15.4297ZM77.1484 13.8672C82.7908 18.5113 86.6428 24.273 88.7044 31.1523C90.7661 38.0317 90.7769 44.911 88.737 51.7904C86.697 58.6697 82.8342 64.4097 77.1484 69.0104C82.704 72.6997 88.8021 74.5443 95.4427 74.5443C99.9566 74.5443 104.253 73.6654 108.333 71.9075C112.413 70.1497 115.929 67.7951 118.88 64.8438C121.832 61.8924 124.186 58.3767 125.944 54.2969C127.702 50.217 128.581 45.9201 128.581 41.4062C128.581 36.9358 127.702 32.6606 125.944 28.5807C124.186 24.5009 121.832 20.9852 118.88 18.0339C115.929 15.0825 112.402 12.7279 108.301 10.9701C104.199 9.21224 99.9132 8.33333 95.4427 8.33333C88.8021 8.33333 82.704 10.178 77.1484 13.8672ZM125.391 60.8724H125.846V60.6771H124.74V60.8724H125.195V61.9792H125.391V60.8724ZM127.279 61.9792H127.539V60.6771H127.214L126.823 61.5234L126.432 60.6771H126.107V61.9792H126.302V61.0026L126.693 61.849H126.953L127.279 61.0026V61.9792ZM126.758 90.625V90.7552H126.432V90.5599H126.758V90.625ZM126.758 91.2109H126.953L126.693 90.8854H126.823L126.888 90.8203C126.931 90.7769 126.953 90.7118 126.953 90.625C126.953 90.5382 126.931 90.4731 126.888 90.4297L126.823 90.3646H126.237V91.2109H126.432V90.8854H126.497L126.758 91.2109ZM44.5964 86.7839C44.5964 85.9592 44.8351 85.2865 45.3125 84.7656C45.7899 84.2448 46.441 83.9844 47.2656 83.9844C48.0469 83.9844 48.6762 84.2556 49.1536 84.7982C49.6311 85.3407 49.8698 86.0026 49.8698 86.7839C49.8698 87.6085 49.6311 88.2812 49.1536 88.8021C48.6762 89.3229 48.0469 89.5833 47.2656 89.5833C46.441 89.5833 45.7899 89.3229 45.3125 88.8021C44.8351 88.2812 44.5964 87.6085 44.5964 86.7839ZM75.3906 83.9193C76.6927 83.9193 77.4523 84.6137 77.6693 86.0026H73.112C73.329 84.6137 74.0885 83.9193 75.3906 83.9193ZM98.5677 86.7839C98.5677 85.9592 98.8064 85.2865 99.2839 84.7656C99.7613 84.2448 100.391 83.9844 101.172 83.9844C101.953 83.9844 102.593 84.2556 103.092 84.7982C103.592 85.3407 103.841 86.0026 103.841 86.7839C103.841 87.6085 103.602 88.2812 103.125 88.8021C102.648 89.3229 101.997 89.5833 101.172 89.5833C100.391 89.5833 99.7613 89.3229 99.2839 88.8021C98.8064 88.2812 98.5677 87.6085 98.5677 86.7839ZM116.276 86.7839C116.276 86.0026 116.526 85.3407 117.025 84.7982C117.524 84.2556 118.164 83.9844 118.945 83.9844C119.727 83.9844 120.367 84.2556 120.866 84.7982C121.365 85.3407 121.615 86.0026 121.615 86.7839C121.615 87.6085 121.365 88.2812 120.866 88.8021C120.367 89.3229 119.727 89.5833 118.945 89.5833C118.164 89.5833 117.524 89.3121 117.025 88.7695C116.526 88.227 116.276 87.5651 116.276 86.7839ZM126.562 91.4714C126.476 91.4714 126.389 91.4496 126.302 91.4062C126.259 91.4062 126.194 91.3628 126.107 91.276C126.02 91.1892 125.977 91.1241 125.977 91.0807C125.933 90.9939 125.911 90.9071 125.911 90.8203C125.911 90.6901 125.933 90.6033 125.977 90.5599C125.977 90.4731 126.02 90.3863 126.107 90.2995L126.172 90.2344C126.259 90.2344 126.302 90.2127 126.302 90.1693C126.389 90.1259 126.476 90.1042 126.562 90.1042C126.693 90.1042 126.78 90.1259 126.823 90.1693L127.083 90.2995L127.214 90.5599V90.625C127.257 90.7118 127.279 90.7769 127.279 90.8203L127.214 90.8854V91.0807L127.148 91.1458L127.083 91.276C126.997 91.3628 126.91 91.4062 126.823 91.4062C126.78 91.4496 126.693 91.4714 126.562 91.4714ZM38.9974 91.2109H40.9505V85.6771C40.9505 84.6354 40.6358 83.7999 40.0065 83.1706C39.3772 82.5412 38.52 82.2049 37.4349 82.1615C36.046 82.1615 35.026 82.6823 34.375 83.724C33.7674 82.6823 32.7908 82.1615 31.4453 82.1615C30.4036 82.1615 29.5573 82.5955 28.9062 83.4635V82.4219H26.9531V91.2109H28.9062V86.3281C28.9062 84.7656 29.6224 83.9844 31.0547 83.9844C32.3568 83.9844 33.0078 84.7656 33.0078 86.3281V91.2109H34.8958V86.3281C34.8958 84.7656 35.612 83.9844 37.0443 83.9844C38.3464 83.9844 38.9974 84.7656 38.9974 86.3281V91.2109ZM49.8047 91.2109H51.6927V82.4219H49.8047V83.4635C49.0668 82.5955 48.1337 82.1615 47.0052 82.1615C45.7465 82.1615 44.7049 82.5955 43.8802 83.4635C43.0556 84.3316 42.6432 85.4384 42.6432 86.7839C42.6432 88.1293 43.0556 89.2361 43.8802 90.1042C44.7049 90.9722 45.7465 91.4062 47.0052 91.4062C48.2205 91.4062 49.1536 90.9722 49.8047 90.1042V91.2109ZM61.3932 88.5417C61.3932 87.066 60.3733 86.1979 58.3333 85.9375L57.4219 85.8073C56.4236 85.6337 55.9245 85.3299 55.9245 84.8958C55.9245 84.2448 56.467 83.9193 57.5521 83.9193C58.5503 83.9193 59.4835 84.158 60.3516 84.6354L61.1328 83.0729C60.1779 82.4653 58.9844 82.1615 57.5521 82.1615C56.4236 82.1615 55.5339 82.4219 54.8828 82.9427C54.2318 83.4635 53.9062 84.158 53.9062 85.026C53.9062 86.4583 54.9262 87.3047 56.9661 87.5651L57.8125 87.6953C58.8542 87.8689 59.375 88.1727 59.375 88.6068C59.375 89.3446 58.7023 89.7135 57.3568 89.7135C56.2717 89.7135 55.2951 89.4097 54.4271 88.8021L53.5807 90.2995C54.6658 91.0373 55.9245 91.4062 57.3568 91.4062C58.6154 91.4062 59.6029 91.1458 60.319 90.625C61.0352 90.1042 61.3932 89.4097 61.3932 88.5417ZM69.8568 90.7552L69.3359 89.1276C68.7717 89.4314 68.2075 89.5833 67.6432 89.5833C66.8186 89.5833 66.4062 89.1059 66.4062 88.151V84.1797H69.5312V82.4219H66.4062V79.7526H64.4531V82.4219H62.6302V84.1797H64.4531V88.151C64.4531 90.3212 65.4731 91.4062 67.513 91.4062C68.4245 91.4062 69.2057 91.1892 69.8568 90.7552ZM75.4557 82.1615C74.197 82.1615 73.1554 82.5955 72.3307 83.4635C71.5061 84.3316 71.0938 85.4384 71.0938 86.7839C71.0938 88.1727 71.5169 89.2904 72.3633 90.1367C73.2096 90.9831 74.2839 91.4062 75.5859 91.4062C77.0182 91.4062 78.2118 90.9939 79.1667 90.1693L78.2552 88.737C77.474 89.388 76.6276 89.7135 75.7161 89.7135C74.2404 89.7135 73.3507 88.9974 73.0469 87.5651H79.6224V86.7839C79.6224 85.395 79.2318 84.2773 78.4505 83.431C77.6693 82.5846 76.671 82.1615 75.4557 82.1615ZM85.8073 82.1615C84.809 82.1615 84.0495 82.5955 83.5286 83.4635V82.4219H81.5755V91.2109H83.5286V86.263C83.5286 84.7439 84.158 83.9844 85.4167 83.9844C85.8507 83.9844 86.2413 84.0712 86.5885 84.2448L87.1745 82.4219C86.7839 82.2483 86.3281 82.1615 85.8073 82.1615ZM87.7604 86.7839C87.7604 88.1293 88.1836 89.2361 89.0299 90.1042C89.8763 90.9722 91.0156 91.4062 92.4479 91.4062C93.7066 91.4062 94.7483 91.059 95.5729 90.3646L94.6615 88.8021C93.8802 89.3663 93.1207 89.6267 92.3828 89.5833C91.6016 89.5833 90.9614 89.3229 90.4622 88.8021C89.9631 88.2812 89.7135 87.6085 89.7135 86.7839C89.7135 85.9592 89.9631 85.2865 90.4622 84.7656C90.9614 84.2448 91.6016 83.9844 92.3828 83.9844C93.2075 83.9844 93.967 84.2448 94.6615 84.7656L95.5729 83.2031C94.7049 82.5087 93.6632 82.1615 92.4479 82.1615C91.0156 82.1615 89.8763 82.5955 89.0299 83.4635C88.1836 84.3316 87.7604 85.4384 87.7604 86.7839ZM103.711 91.2109H105.664V82.4219H103.711V83.4635C103.06 82.5955 102.148 82.1615 100.977 82.1615C99.7179 82.1615 98.6654 82.5955 97.819 83.4635C96.9727 84.3316 96.5495 85.4384 96.5495 86.7839C96.5495 88.1293 96.9727 89.2361 97.819 90.1042C98.6654 90.9722 99.7179 91.4062 100.977 91.4062C102.192 91.4062 103.103 90.9722 103.711 90.1042V91.2109ZM112.37 82.1615C111.372 82.1615 110.612 82.5955 110.091 83.4635V82.4219H108.203V91.2109H110.091V86.263C110.091 84.7439 110.72 83.9844 111.979 83.9844C112.413 83.9844 112.804 84.0712 113.151 84.2448L113.737 82.4219C113.39 82.2483 112.934 82.1615 112.37 82.1615ZM121.484 91.2109H123.372V78.8411H121.484V83.4635C120.833 82.5955 119.9 82.1615 118.685 82.1615C117.47 82.1615 116.439 82.6063 115.592 83.4961C114.746 84.3858 114.323 85.4818 114.323 86.7839C114.323 88.0859 114.746 89.1819 115.592 90.0716C116.439 90.9614 117.47 91.4062 118.685 91.4062C119.944 91.4062 120.877 90.9722 121.484 90.1042V91.2109ZM126.562 89.9089L126.432 89.974H126.237C126.15 90.0174 126.063 90.0825 125.977 90.1693C125.846 90.2127 125.781 90.2995 125.781 90.4297C125.738 90.5165 125.716 90.6467 125.716 90.8203C125.716 90.9505 125.738 91.059 125.781 91.1458C125.781 91.2326 125.846 91.3194 125.977 91.4062C126.063 91.493 126.15 91.5582 126.237 91.6016C126.324 91.645 126.432 91.6667 126.562 91.6667C126.736 91.6667 126.866 91.645 126.953 91.6016C126.953 91.5582 126.997 91.5148 127.083 91.4714L127.214 91.4062C127.257 91.3628 127.322 91.276 127.409 91.1458C127.452 91.059 127.474 90.9505 127.474 90.8203C127.474 90.6467 127.452 90.5165 127.409 90.4297C127.365 90.3863 127.3 90.2995 127.214 90.1693C127.214 90.1259 127.17 90.0825 127.083 90.0391L126.953 89.974C126.91 89.974 126.845 89.9631 126.758 89.9414C126.671 89.9197 126.606 89.9089 126.562 89.9089ZM150 8.33333V91.6667C150 93.9236 149.175 95.8767 147.526 97.526C145.877 99.1753 143.924 100 141.667 100H8.33333C6.07639 100 4.12326 99.1753 2.47396 97.526C0.824653 95.8767 0 93.9236 0 91.6667V8.33333C0 6.07639 0.824653 4.12326 2.47396 2.47396C4.12326 0.824653 6.07639 0 8.33333 0H141.667C143.924 0 145.877 0.824653 147.526 2.47396C149.175 4.12326 150 6.07639 150 8.33333Z" fill="white"/>
</svg>
