<svg width="150" height="150" viewBox="0 0 150 150" fill="none" xmlns="http://www.w3.org/2000/svg">
<path d="M122.213 59.3C122.969 62.8188 122.875 67.0875 121.963 72.1188C118.325 90.7313 106.481 100.031 86.4438 100.031H83.6813C82.6603 100.025 81.6727 100.394 80.9062 101.069C80.112 101.757 79.5836 102.701 79.4125 103.738L79.1563 104.919L75.7 126.663L75.5687 127.606C75.3904 128.65 74.8424 129.595 74.025 130.269C73.2537 130.948 72.2586 131.317 71.2313 131.306H55.4625C55.0678 131.327 54.6739 131.253 54.3139 131.09C53.9539 130.926 53.6384 130.679 53.3938 130.369C53.1453 130.052 52.9667 129.686 52.8698 129.295C52.7729 128.904 52.7597 128.497 52.8312 128.1C53.2125 125.769 53.7563 122.238 54.5 117.544C55.2313 112.856 55.7875 109.331 56.1688 106.988C56.55 104.644 57.1062 101.125 57.8687 96.4563C58.625 91.7813 59.1937 88.2688 59.5625 85.925C59.7687 84.375 60.6813 83.6063 62.2688 83.6063H70.4938C76.075 83.6875 81.0063 83.2501 85.3375 82.2876C92.6625 80.6501 98.675 77.6375 103.375 73.2313C107.656 69.25 110.894 64.0938 113.125 57.775C114.138 54.8375 114.856 52.0438 115.325 49.4125C115.363 49.1563 115.412 49 115.481 48.95C115.531 48.8813 115.619 48.8625 115.7 48.8813C115.836 48.9419 115.965 49.0151 116.088 49.1C119.362 51.5875 121.425 54.9813 122.213 59.3ZM111.413 41.575C111.413 46.0563 110.45 51 108.506 56.4125C105.15 66.175 98.8375 72.775 89.525 76.2125C84.7875 77.8938 79.5125 78.7626 73.6812 78.8688C73.6812 78.9063 71.8 78.9126 68.0312 78.9126L62.3875 78.8688C58.1875 78.8688 55.7188 80.8688 54.9688 84.8938C54.8875 85.2251 53.1063 96.3313 49.625 118.2C49.575 118.613 49.325 118.838 48.8687 118.838H30.3375C29.9008 118.847 29.4674 118.759 29.0687 118.581C28.6699 118.402 28.3156 118.138 28.0313 117.806C27.7362 117.48 27.5184 117.091 27.394 116.669C27.2696 116.248 27.2417 115.803 27.3125 115.369L41.8875 22.9C42.0742 21.7168 42.6878 20.6429 43.6125 19.8813C44.514 19.1053 45.6668 18.6833 46.8563 18.6938H84.4438C85.8688 18.6938 87.9125 18.9688 90.5625 19.5125C93.2375 20.0375 95.5687 20.725 97.5813 21.5188C102.069 23.2313 105.494 25.8188 107.862 29.25C110.231 32.7 111.413 36.7938 111.413 41.575Z" fill="white"/>
</svg>
