<svg width="252" height="78" viewBox="0 0 252 78" fill="none" xmlns="http://www.w3.org/2000/svg">
<path d="M182.737 3.82499C176.927 1.70762 170.784 0.645112 164.6 0.687499C144.6 0.687499 130.475 10.7625 130.375 25.225C130.25 35.85 140.412 41.8375 148.1 45.3875C155.987 49.0375 158.625 51.3375 158.6 54.6C158.55 59.5625 152.3 61.8125 146.487 61.8125C138.5 61.8125 134.137 60.7 127.425 57.9125L124.937 56.75L122.1 73.4C126.962 75.425 135.725 77.1625 144.775 77.3125C166.037 77.3125 179.937 67.3 180.1 51.9125C180.275 43.425 174.775 37.0125 163.2 31.7125C156.162 28.275 151.8 25.975 151.8 22.4875C151.8 19.4 155.537 16.1 163.35 16.1C168.549 15.9742 173.717 16.9497 178.512 18.9625L180.387 19.8L183.225 3.7125L182.737 3.82499ZM234.637 2.0375H219.012C214.15 2.0375 210.487 3.375 208.362 8.2L178.312 76.275H199.575L203.825 65.1125L229.775 65.1375C230.387 67.75 232.262 76.275 232.262 76.275H251.012L234.637 2.0375ZM101.612 1.41249H121.875L109.2 75.6875H88.9624L101.612 1.3875V1.41249ZM50.1749 42.35L52.2749 52.6625L72.0749 2.0375H93.5374L61.6499 76.175H40.2374L22.7374 13.4C22.4539 12.3649 21.7883 11.4759 20.8749 10.9125C14.5674 7.65422 7.8842 5.18159 0.974884 3.54999L1.24988 1.98749H33.8624C38.2874 2.16249 41.8499 3.54999 43.0374 8.27499L50.1624 42.3875V42.35H50.1749ZM209.637 49.925L217.712 29.15C217.612 29.375 219.375 24.8625 220.4 22.075L221.787 28.4875L226.475 49.9125H209.625V49.925H209.637Z" fill="white"/>
</svg>
